<?xml version="1.0" encoding="UTF-8"?>
<svg width="1182px" height="507px" viewBox="0 0 1182 507" version="1.1" xmlns="http://www.w3.org/2000/svg" xmlns:xlink="http://www.w3.org/1999/xlink">
    <!-- Generator: Sketch 49 (51002) - http://www.bohemiancoding.com/sketch -->
    <title>background-decorators</title>
    <desc>Created with Sketch.</desc>
    <defs></defs>
    <g id="Desktop" stroke="none" stroke-width="1" fill="none" fill-rule="evenodd">
        <g id="Desktop-/-Home" transform="translate(-149.000000, -1372.000000)" fill="#FFFFFF">
            <g id="products" transform="translate(148.000000, 1255.000000)">
                <g id="background-decorators" transform="translate(0.000000, 117.000000)">
                    <g id="whale" opacity="0.0447667572" transform="translate(959.000000, 419.000000)" fill-rule="nonzero">
                        <path d="M215.519734,49.6804314 C213.077754,47.033117 210.025278,46.0906176 208.929162,44.7045891 C206.612056,41.7939293 210.392963,38.8624791 210.587211,34.0044493 C210.961833,24.79429 210.212589,20.4560208 208.894475,18.4046987 C207.347425,16.0068694 197.295068,21.9113507 197.295068,21.9113507 C187.38146,25.6744181 185.924596,37.0537119 185.75116,41.8493705 C184.20411,41.3642605 182.726435,40.8722204 181.401383,40.3801803 C174.637374,37.8645386 156.828955,36.6171129 154.421661,34.2885851 C124.88896,5.79183946 32.9470098,6.79671011 21.569601,8.97277483 C-14.3594236,15.8544063 12.9116703,65.2455313 12.9116703,65.2455313 C12.9116703,65.2455313 13.4944157,66.7077913 20.4110477,66.8325339 C38.3790288,72.7439454 62.1605882,70.9005275 62.1605882,71.4687992 C62.1605882,72.0370708 78.3317711,90 80.5031912,90 C82.6746113,90 83.4724174,80.1661279 83.8747892,78.8355406 C84.2771609,77.5118834 81.0581867,74.4834111 81.0581867,74.4834111 C81.0581867,74.4834111 81.0581867,74.4834111 83.7152279,74.4834111 C86.3722692,74.4834111 89.7022425,75.0239622 105.151931,76.37534 C145.507045,79.9166428 177.231979,68.6066504 177.231979,68.6066504 C183.073307,67.0889492 188.810573,64.7604213 194.103843,62.1477576 C197.752939,66.3335636 204.343511,71.8083761 212.814131,69.8748664 C212.814131,69.8748664 222.200493,68.1700514 224.413538,66.3682144 C226.723707,64.4832156 221.888308,56.5967135 215.519734,49.6804314 Z" id="Shape" transform="translate(114.000000, 49.000000) rotate(4.000000) translate(-114.000000, -49.000000) "></path>
                    </g>
                    <g id="tuna" opacity="0.0731657609" transform="translate(43.755960, 23.286111) scale(-1, 1) rotate(6.000000) translate(-43.755960, -23.286111) translate(1.755960, 4.286111)" fill-rule="nonzero">
                        <path d="M83.5590448,6.36944651 C73.4450554,10.01173 73.5286205,17.1039137 71.9147693,17.1455101 C68.1412824,17.2417017 50.0468253,11.2674209 49.4462011,11.2128256 C48.8455769,11.1582304 48.9004165,10.9944446 49.4462011,10.7240681 C49.9919857,10.4510918 49.6655595,10.2353106 49.2268427,9.74395328 C48.7907373,9.25519575 48.1875016,8.16589041 47.641717,7.45875186 C47.0959324,6.7516133 48.7358977,3.37710654 50.6996777,2.01482492 C52.6634577,0.65514307 52.0158281,0.816329063 52.0158281,0.816329063 C49.2268427,0.980114831 42.1760367,9.14340546 42.1760367,9.14340546 C42.1760367,9.14340546 41.8156622,8.44406623 40.8311608,8.21788589 C34.5637777,6.77761104 26.6773207,0.894322286 26.2412153,0 L23.5906346,8.76383845 C9.5960905,11.2674209 0.302083714,19.160335 0.302083714,19.160335 C0.302083714,19.160335 -0.191472701,19.6750903 0.153233366,20.1898456 C0.581504542,20.82939 0.738189118,20.4108264 1.99688855,20.9567789 C3.25558798,21.5001317 3.63685378,21.9368937 4.89555321,22.5348418 C6.15425264,23.1327898 4.7310344,22.8078181 3.80137259,22.8624133 C2.87171077,22.9170086 1.67046235,22.9716038 0.631121324,23.0807943 C-0.408219699,23.1899849 -0.243700894,23.3537706 1.72530195,24.604262 C3.69430479,25.8573531 11.1289879,28.4675263 13.8631338,29.2292601 C16.4066468,29.9389984 17.294526,30.081986 23.1806433,30.6253387 C23.43395,30.8541189 23.7055366,31.1452936 23.9771232,31.5144615 C25.0164642,32.9287386 25.1261434,34.4522062 25.7267676,35.052754 C26.3273918,35.6507021 27.2022141,37.0675789 27.6409309,37.5017412 C28.0770363,37.9359035 29.9363599,34.6705872 29.8815203,32.6583621 C29.8580176,31.8108357 29.7196129,31.2908809 29.4950317,30.9477107 C34.2425744,30.898315 37.7053035,30.1833771 38.4103841,29.9363986 C39.0449566,29.712818 42.732267,28.7561012 45.8972954,27.7551882 C46.6650498,29.299454 47.9942573,30.0429893 48.6236071,30.3549622 C49.6081085,30.8437198 54.8674874,32.7103576 55.470723,32.7103576 C56.0713472,32.7103576 50.459428,29.8142092 50.5664958,28.9406851 C50.6735636,28.067161 51.645008,26.1199303 51.3525301,25.7611614 C55.3741009,24.4898719 61.0408597,22.5660391 65.3157373,21.6301204 C70.1520678,20.5720123 72.6381298,20.3016358 72.6381298,20.3016358 C75.5367944,27.4302164 83.2979038,31.0231042 83.2979038,31.0231042 C80.4958613,29.1174698 78.5973665,23.8399284 77.4483463,18.6143825 C76.2888804,13.3914363 83.5590448,6.36944651 83.5590448,6.36944651 Z" id="Shape"></path>
                    </g>
                    <g id="bubbles" transform="translate(115.000000, 0.000000)">
                        <g id="Bubble" transform="translate(967.000000, 0.000000)">
                            <circle id="Oval-6" fill-rule="evenodd" opacity="0.104166667" cx="43.5" cy="43.5" r="43.5"></circle>
                            <path d="M18.195345,44.7652712 C18.2932822,47.1534452 16.4366783,49.1688365 14.0485043,49.2667736 C11.6603303,49.3647107 9.64493905,47.5081069 9.54700192,45.1199329 C9.1394554,35.1820068 12.2317794,26.5891435 18.7649325,19.6050023 C25.4107246,12.5004465 34.2153023,9.2789975 44.8033094,9.97650889 C47.1883211,10.1336275 48.9943852,12.1944312 48.8372666,14.5794428 C48.680148,16.9644545 46.6193443,18.7705186 44.2343327,18.6134 C36.1583511,18.0813746 29.9007118,20.3709411 25.0860586,25.5179532 C20.1587663,30.7853798 17.8815423,37.1132661 18.195345,44.7652712 Z" id="Line-2" fill-rule="nonzero" opacity="0.0494225543"></path>
                        </g>
                        <g id="Bubble" transform="translate(0.000000, 345.000000)">
                            <ellipse id="Oval-6" fill-rule="evenodd" opacity="0.104166667" cx="26.5" cy="25" rx="26.5" ry="25"></ellipse>
                            <path d="M11.0845205,25.7271673 C11.1441834,27.0996811 10.0131489,28.257952 8.55828425,28.3142377 C7.10341963,28.3705234 5.87565253,27.3035097 5.81598967,25.9309959 C5.56771421,20.2195441 7.45154379,15.2811169 11.4315106,11.2672427 C15.4800966,7.18416468 20.8438049,5.33275718 27.2939701,5.7336258 C28.7469082,5.82392384 29.8471542,7.0082938 29.7514383,8.37899014 C29.6557224,9.74968648 28.4002902,10.7876544 26.9473521,10.6973563 C22.0275012,10.3915946 18.2153762,11.7074374 15.2823115,14.6654903 C12.2806278,17.692747 10.8933534,21.3294633 11.0845205,25.7271673 Z" id="Line-2" fill-rule="nonzero" opacity="0.0494225543"></path>
                        </g>
                        <g id="Bubble" transform="translate(968.500000, 262.000000) rotate(-20.000000) translate(-968.500000, -262.000000) translate(944.000000, 238.000000)">
                            <ellipse id="Oval-6" fill-rule="evenodd" opacity="0.104166667" cx="24.5" cy="24" rx="24.5" ry="24"></ellipse>
                            <path d="M10.2479529,24.6980806 C10.3031129,26.0156939 9.25743953,27.1276339 7.91237601,27.1816682 C6.56731249,27.2357025 5.43220705,26.2113693 5.37704706,24.8937561 C5.14750936,19.4107624 6.88916313,14.6698723 10.5687551,10.816553 C14.3117874,6.8967981 19.2706875,5.1194469 25.2340478,5.50428077 C26.5773303,5.59096689 27.5945388,6.72796205 27.5060467,8.04383053 C27.4175546,9.35969902 26.2568721,10.3561482 24.9135897,10.2694621 C20.3650483,9.97593081 16.8406308,11.2391399 14.1289295,14.0788707 C11.3537879,16.9850372 10.0712135,20.4762847 10.2479529,24.6980806 Z" id="Line-2" fill-rule="nonzero" opacity="0.0494225543"></path>
                        </g>
                        <g id="Bubble" transform="translate(53.000000, 442.500000) rotate(-20.000000) translate(-53.000000, -442.500000) translate(38.000000, 427.000000)">
                            <ellipse id="Oval-6" fill-rule="evenodd" opacity="0.104166667" cx="15" cy="15.5" rx="15" ry="15.5"></ellipse>
                            <path d="M6.2742569,15.9508438 C6.30802833,16.8018023 5.66782012,17.5199302 4.84431184,17.5548274 C4.02080356,17.5897245 3.32584105,16.928176 3.29206963,16.0772175 C3.15153634,12.5361174 4.21785498,9.4742925 6.47066638,6.98569046 C8.76231882,4.4541821 11.7983801,3.30630945 15.449417,3.55484799 C16.2718348,3.61083278 16.8946156,4.34514215 16.8404368,5.19497389 C16.7862579,6.04480562 16.075636,6.68834572 15.2532182,6.63236093 C12.4683969,6.44278865 10.3105903,7.25861118 8.65036502,9.09260401 C6.95129874,10.9695032 6.16604908,13.2242672 6.2742569,15.9508438 Z" id="Line-2" fill-rule="nonzero" opacity="0.0494225543"></path>
                        </g>
                    </g>
                </g>
            </g>
        </g>
    </g>
</svg>