<svg xmlns="http://www.w3.org/2000/svg" xmlns:xlink="http://www.w3.org/1999/xlink" width="53" height="56" viewBox="0 0 53 56">
    <defs>
        <path id="a" d="M10.693.02H.026v11.736h10.667V.02z"/>
        <path id="c" d="M24.94 33.033a23.12 23.12 0 0 1-6.337 3.184 22.963 22.963 0 0 1-5.304 1.037 23.414 23.414 0 0 1-7.27-.589A22.945 22.945 0 0 1 .05 34.282V.002h24.89v33.031z"/>
    </defs>
    <g fill="none" fill-rule="evenodd">
        <g transform="translate(6.819)">
            <mask id="b" fill="#fff">
                <use xlink:href="#a"/>
            </mask>
            <path fill="#FFF" d="M1.737 11.756l-1.71-.735.014-.035a96.806 96.806 0 0 1 1.87-4.059c.372-.758.72-1.438 1.064-2.078a35.3 35.3 0 0 1 1.129-1.967c.287-.462.675-1.062 1.134-1.617C5.56.878 5.947.443 6.483.188A1.54 1.54 0 0 1 7.428.04c.266.048.47.169.593.24l.013.009c.23.135.452.305.662.505.63.598 1.122 1.4 1.553 2.522.201.526.347 1 .444 1.447l-1.817.4a8.059 8.059 0 0 0-.362-1.172c-.327-.852-.675-1.435-1.095-1.835-.084-.08-.169-.15-.254-.206-.184.134-.376.366-.5.515a12.83 12.83 0 0 0-.986 1.41C5.34 4.423 5 5.016 4.61 5.742a61.63 61.63 0 0 0-1.033 2.017 87.678 87.678 0 0 0-1.524 3.272c-.124.28-.218.495-.304.698l-.012.028z" mask="url(#b)"/>
        </g>
        <path fill="#FFF" d="M43.953 11.758l-.013-.031a94.602 94.602 0 0 0-1.83-3.973 61.78 61.78 0 0 0-1.029-2.008c-.39-.727-.73-1.32-1.07-1.866a12.848 12.848 0 0 0-.987-1.412c-.124-.15-.317-.384-.5-.517-.085.057-.17.126-.254.206-.422.401-.77.986-1.097 1.84a8.065 8.065 0 0 0-.36 1.167l-1.817-.4c.097-.445.241-.916.442-1.44.43-1.126.924-1.929 1.555-2.529.21-.2.432-.37.662-.505l.013-.008c.122-.072.327-.193.594-.24.307-.055.626-.005.945.147.536.255.924.69 1.245 1.078.46.556.848 1.157 1.135 1.618.361.581.72 1.207 1.13 1.97.343.638.69 1.315 1.06 2.067a89.628 89.628 0 0 1 1.871 4.064l.014.033-1.709.74z"/>
        <path fill="#FFF" d="M26.5 4.185a24.301 24.301 0 0 0-3.67.28 23.858 23.858 0 0 0-3.62.854 23.83 23.83 0 0 0-7.938 4.35 24.296 24.296 0 0 0-6.582 8.563 24.244 24.244 0 0 0-1.724 5.285 24.388 24.388 0 0 0-.463 3.785 24.974 24.974 0 0 0 .133 3.869 24.43 24.43 0 0 0 .716 3.707A24.208 24.208 0 0 0 15.634 49.98a23.913 23.913 0 0 0 3.372 1.41 23.712 23.712 0 0 0 5.496 1.12 24.286 24.286 0 0 0 5.74-.21 23.853 23.853 0 0 0 3.616-.865 23.803 23.803 0 0 0 6.492-3.27 24.282 24.282 0 0 0 6.228-6.486 24.336 24.336 0 0 0 2.46-4.9A24.205 24.205 0 0 0 50.5 29.4a24.977 24.977 0 0 0-.145-3.867 24.467 24.467 0 0 0-.727-3.703 24.22 24.22 0 0 0-3.008-6.667 24.35 24.35 0 0 0-4.785-5.405 24.247 24.247 0 0 0-2.945-2.11 24.019 24.019 0 0 0-3.243-1.647 23.819 23.819 0 0 0-5.342-1.514 23.973 23.973 0 0 0-3.805-.302m-.001 50.906h-.082a26.753 26.753 0 0 1-4.191-.345 26.309 26.309 0 0 1-3.993-.98 26.273 26.273 0 0 1-7.133-3.644 26.749 26.749 0 0 1-9.518-12.624 26.761 26.761 0 0 1-1.566-8.16 27.47 27.47 0 0 1 .186-4.258 26.938 26.938 0 0 1 .825-4.078 26.788 26.788 0 0 1 2.323-5.619 26.857 26.857 0 0 1 3.473-4.88 26.892 26.892 0 0 1 2.876-2.765 26.732 26.732 0 0 1 3.255-2.304 26.48 26.48 0 0 1 3.598-1.802 26.317 26.317 0 0 1 3.875-1.241 26.302 26.302 0 0 1 6.073-.705 26.764 26.764 0 0 1 4.195.333 26.295 26.295 0 0 1 5.897 1.672 26.392 26.392 0 0 1 6.827 4.145 26.808 26.808 0 0 1 6.306 7.683 26.802 26.802 0 0 1 2.29 5.636 26.8 26.8 0 0 1 .966 6.202 27.507 27.507 0 0 1-.173 4.26 26.965 26.965 0 0 1-.814 4.082 26.73 26.73 0 0 1-3.345 7.355 26.893 26.893 0 0 1-3.806 4.607 26.823 26.823 0 0 1-3.062 2.546 26.678 26.678 0 0 1-3.43 2.072 26.406 26.406 0 0 1-3.734 1.536 26.272 26.272 0 0 1-8.118 1.276"/>
        <g>
            <g transform="translate(16 16)">
                <mask id="d" fill="#fff">
                    <use xlink:href="#c"/>
                </mask>
                <path fill="#FFF" d="M9.974 42.113a1.26 1.26 0 0 1-.293-2.487 16.342 16.342 0 0 0 .863-.249 23.767 23.767 0 0 0 3.71-1.554c.53-.278 1.047-.577 1.535-.887.542-.345 1.06-.711 1.54-1.09.526-.414 1.02-.854 1.466-1.305.483-.487.923-1 1.31-1.526.411-.56.773-1.15 1.075-1.754a11.52 11.52 0 0 0 .779-2.006c.208-.734.347-1.506.412-2.293.07-.84.058-1.722-.035-2.622a15.074 15.074 0 0 0-.496-2.615 11.078 11.078 0 0 0-.794-2.015 9.906 9.906 0 0 0-1.014-1.573 11.823 11.823 0 0 0-1.168-1.268 21.21 21.21 0 0 0-1.28-1.102c-.193-.156-.388-.31-.583-.464-.243-.192-.495-.39-.742-.592a16.68 16.68 0 0 1-1.292-1.146 8.408 8.408 0 0 1-1.139-1.393 6.739 6.739 0 0 1-.805-1.763 7.798 7.798 0 0 1-.293-2.157c-.002-.793.094-1.633.293-2.568.157-.737.374-1.512.658-2.352a34.369 34.369 0 0 0-2.22 1.214c-.535.319-1.056.651-1.55.989-.548.374-1.075.763-1.567 1.155-.536.427-1.044.87-1.508 1.314-.498.477-.96.968-1.372 1.46a14.711 14.711 0 0 0-1.172 1.604 12.088 12.088 0 0 0-.908 1.736 10.47 10.47 0 0 0-.59 1.872 9.994 9.994 0 0 0-.218 2.02c-.004.722.07 1.464.22 2.207.16.788.409 1.6.742 2.414.351.86.806 1.746 1.351 2.632.56.911 1.202 1.808 1.962 2.743a1.26 1.26 0 0 1-.184 1.773 1.264 1.264 0 0 1-1.776-.184 28.01 28.01 0 0 1-2.154-3.012A20.765 20.765 0 0 1 1.2 22.27a15.958 15.958 0 0 1-.88-2.87 13.396 13.396 0 0 1-.269-2.718c.005-.851.097-1.703.273-2.531.167-.783.413-1.565.732-2.324a14.61 14.61 0 0 1 1.097-2.1c.4-.636.862-1.269 1.373-1.88.471-.564.997-1.124 1.562-1.665.52-.497 1.085-.99 1.68-1.464.54-.43 1.119-.857 1.718-1.266.536-.366 1.1-.726 1.678-1.071a35.823 35.823 0 0 1 4.34-2.209l.018-.007c.055-.024.146-.065.262-.098a1.653 1.653 0 0 1 2.04 2.077c-.05.16-.11.297-.157.408l-.049.114c-.109.273-.213.544-.309.805a20.034 20.034 0 0 0-.816 2.737c-.162.758-.24 1.424-.238 2.037a5.29 5.29 0 0 0 .193 1.46c.113.386.283.757.505 1.103.208.323.47.643.804.976.368.37.779.713 1.096.97.234.19.478.383.714.57.201.159.403.318.602.479a23.64 23.64 0 0 1 1.43 1.233c.53.502 1.008 1.02 1.418 1.542.486.616.914 1.28 1.273 1.974.394.763.723 1.595.977 2.474.274.95.47 1.978.58 3.054.11 1.054.123 2.094.04 3.09-.078.948-.246 1.881-.499 2.771a14.06 14.06 0 0 1-.95 2.446 14.68 14.68 0 0 1-1.298 2.119c-.46.625-.98 1.233-1.549 1.807-.52.525-1.09 1.033-1.697 1.512-.547.43-1.135.847-1.749 1.237-.547.348-1.125.682-1.717.992a25.895 25.895 0 0 1-4.117 1.724 18.81 18.81 0 0 1-1.042.299 1.269 1.269 0 0 1-.295.035" mask="url(#d)"/>
            </g>
        </g>
    </g>
</svg>
