<svg xmlns="http://www.w3.org/2000/svg" xmlns:xlink="http://www.w3.org/1999/xlink" viewBox="0 0 855 922.67"><defs><style>.cls-1,.cls-2{fill:#fff;}.cls-2,.cls-3,.cls-6{stroke:#000;stroke-miterlimit:10;}.cls-2{stroke-width:30px;}.cls-3,.cls-5{fill:#ff6b39;}.cls-3,.cls-6{stroke-width:40px;}.cls-4{clip-path:url(#clip-path);}.cls-6{fill:none;stroke-linecap:round;}</style><clipPath id="clip-path"><circle id="_Elipse_" data-name="&lt;Elipse&gt;" class="cls-1" cx="443.5" cy="480.67" r="366"/></clipPath></defs><title>serenata</title><g id="Capa_2" data-name="Capa 2"><g id="Gatu"><g id="Cat"><g id="Orejas"><path class="cls-2" d="M267.84,79.15S257,28.67,229,15.67,124.22,182,124.22,182"/><path class="cls-2" d="M579.22,79.15s10.84-50.47,38.84-63.47S722.84,182,722.84,182"/></g><g id="Body"><circle id="Outside" class="cls-3" cx="427.5" cy="454.17" r="407.5"/><g id="Inside"><circle id="_Elipse_2" data-name="&lt;Elipse&gt;" class="cls-1" cx="443.5" cy="480.67" r="366"/><g class="cls-4"><g id="Cola"><path class="cls-5" d="M503.51,362.27a18.55,18.55,0,0,0-5.47-.95l-1.5-.06c-.52,0-1,0-1.55,0l-1.55,0-1.58.13a79.4,79.4,0,0,0-12.78,2.22,118.74,118.74,0,0,0-24.8,9.46c-4,2-7.8,4.28-11.63,6.56s-7.59,4.68-11.3,7.16c-7.43,4.93-14.69,10.13-21.65,15.67a256.25,256.25,0,0,0-37.92,36.92,210,210,0,0,0-15.44,21.14,191.36,191.36,0,0,0-12.41,22.83c-14.44,31.44-18.63,67.19-12.12,102.35.43,2.19.79,4.4,1.26,6.59l1.51,6.56c.24,1.1.54,2.18.85,3.27l.91,3.26.91,3.26c.31,1.09.69,2.16,1,3.24l2.09,6.47,2.34,6.42c.74,2.15,1.62,4.27,2.49,6.38s1.69,4.25,2.61,6.35c1.95,4.16,3.75,8.39,5.89,12.48l3.11,6.19,3.32,6.1,1.66,3.05c.56,1,1.18,2,1.77,3l3.58,6c2.41,4,5,7.87,7.54,11.78l-28.39,19-4.12-6.39c-1.37-2.13-2.81-4.21-4.1-6.4-2.63-4.35-5.34-8.63-7.83-13.08l-3.82-6.63-3.61-6.76c-2.47-4.47-4.62-9.15-6.9-13.75A289.92,289.92,0,0,1,295,593.48c-.66-2.55-1.16-5.14-1.68-7.73s-1.06-5.18-1.45-7.81-.88-5.23-1.22-7.87l-.93-7.94A232.35,232.35,0,0,1,288.9,530a217.86,217.86,0,0,1,12.52-63.47,238.36,238.36,0,0,1,12.87-29.73,272.34,272.34,0,0,1,16.4-27.74,326.12,326.12,0,0,1,40.81-49q11.27-11.19,23.4-21.42c4-3.42,8.16-6.72,12.33-10s8.44-6.37,12.69-9.57c8.49-6.41,17-12.9,25.71-19.75l13.46-10.54,3.54-2.76c.6-.47,1.21-.92,1.81-1.41l1.88-1.43c2.47-1.94,5.22-3.91,8.18-6.1Z"/><path class="cls-6" d="M419,902.67s241.77-57.11,215-270C608.77,432,413.94,512,508.22,283.25a6.18,6.18,0,0,0-8.1-8.07C432.78,303.5,151.31,441.07,354,690.67"/></g></g></g></g></g></g></g></svg>