<svg width="53" height="56" viewBox="0 0 53 56" fill="none" xmlns="http://www.w3.org/2000/svg">
<mask id="mask0" mask-type="alpha" maskUnits="userSpaceOnUse" x="6" y="0" width="12" height="12">
<path fill-rule="evenodd" clip-rule="evenodd" d="M17.5112 0H6.84473L6.84473 11.7362H17.5112V0V0Z" fill="white"/>
</mask>
<g mask="url(#mask0)">
<path fill-rule="evenodd" clip-rule="evenodd" d="M8.55536 11.7362L6.84473 11.0012L6.85985 10.9658C6.94936 10.7564 7.04613 10.5347 7.17302 10.2479C7.38272 9.77378 7.60278 9.2872 7.82718 8.80168C8.12943 8.14777 8.43287 7.51028 8.72911 6.90696C9.10129 6.14905 9.44948 5.4694 9.79357 4.82898C10.2029 4.06707 10.5616 3.44207 10.9224 2.86199C11.2093 2.40052 11.5976 1.79982 12.0569 1.24547C12.3779 0.858019 12.7652 0.423221 13.3012 0.168189C13.6205 0.0161564 13.9384 -0.0331885 14.2464 0.0217155C14.5126 0.0689993 14.7171 0.189863 14.8393 0.262007L14.8527 0.269939C15.0824 0.40542 15.3051 0.575254 15.5149 0.774882C16.1438 1.37333 16.6371 2.17478 17.0672 3.29697C17.2691 3.82371 17.4143 4.29724 17.5112 4.74465L15.6944 5.14435C15.618 4.79175 15.4995 4.40823 15.3324 3.972C15.0059 3.11996 14.6581 2.53693 14.2381 2.13724C14.1539 2.05716 14.0687 1.98814 13.9837 1.93149C13.7999 2.0656 13.6079 2.29727 13.4845 2.4463C13.0992 2.91127 12.7697 3.42033 12.4981 3.85701C12.1588 4.40261 11.819 4.99494 11.4289 5.72112C11.0957 6.34118 10.7579 7.00091 10.3959 7.73796C10.1061 8.3281 9.80907 8.95216 9.51301 9.59277C9.29289 10.069 9.07711 10.546 8.87162 11.0107C8.74789 11.2903 8.65398 11.5055 8.5672 11.7085L8.55536 11.7362Z" fill="white"/>
</g>
<path fill-rule="evenodd" clip-rule="evenodd" d="M43.9533 11.7384L43.9401 11.7073C43.854 11.5061 43.7572 11.2842 43.6358 11.01C43.4305 10.5456 43.2144 10.068 42.9936 9.59031C42.6976 8.94995 42.4002 8.32533 42.1097 7.73382C41.7501 7.0017 41.4139 6.3451 41.0816 5.72648C40.6911 4.99961 40.3511 4.40666 40.0116 3.86055C39.7399 3.42357 39.4101 2.914 39.0243 2.4481C38.9002 2.29819 38.7068 2.06471 38.5246 1.93173C38.4395 1.98857 38.3541 2.05759 38.2698 2.13779C37.8487 2.53854 37.5002 3.12319 37.1734 3.97767C37.0071 4.41215 36.8894 4.79386 36.8133 5.14446L34.9966 4.74451C35.093 4.2996 35.2375 3.82826 35.4382 3.30364C35.8686 2.17864 36.3626 1.37531 36.9929 0.775491C37.2025 0.575988 37.4252 0.406154 37.655 0.270736L37.6682 0.262803C37.7905 0.190597 37.9951 0.0696709 38.2618 0.0223247C38.5695 -0.032392 38.8879 0.0170154 39.2072 0.169048C39.7433 0.424455 40.1309 0.859628 40.4522 1.24752C40.912 1.80287 41.3005 2.40406 41.5876 2.86578C41.9484 3.4463 42.3073 4.07186 42.717 4.83452C43.0603 5.47344 43.4068 6.14997 43.7764 6.9027C44.0734 7.50733 44.3772 8.14544 44.6794 8.79917C44.9045 9.28631 45.1249 9.77339 45.3344 10.247C45.4588 10.5283 45.5586 10.757 45.6483 10.9667L45.6621 10.999L43.9533 11.7384Z" fill="white"/>
<path fill-rule="evenodd" clip-rule="evenodd" d="M26.4999 4.16492C25.9056 4.16492 25.305 4.18703 24.7148 4.23069C24.0856 4.27722 23.4516 4.34949 22.8302 4.44543C22.2158 4.54031 21.5977 4.6608 20.9933 4.80359C20.3948 4.94507 19.7946 5.1119 19.2093 5.29954C18.6287 5.48568 18.0482 5.69692 17.4837 5.92741C16.9205 6.15739 16.3591 6.4123 15.815 6.68507C15.2764 6.95516 14.7409 7.2496 14.2234 7.56035C13.7084 7.86947 13.1983 8.20252 12.707 8.55031C12.2174 8.89697 11.7346 9.26675 11.272 9.64939C10.81 10.0313 10.3565 10.4359 9.92385 10.8517C9.48956 11.269 9.06556 11.7081 8.6635 12.157C8.26268 12.6045 7.87377 13.0726 7.50748 13.5485C7.14039 14.0253 6.78662 14.5222 6.45597 15.0254C6.12427 15.5303 5.80764 16.0541 5.51493 16.582C5.22061 17.1128 4.94296 17.6615 4.6898 18.2125C4.43491 18.7672 4.1983 19.3387 3.98642 19.911C3.77287 20.4879 3.5791 21.0803 3.41043 21.6719C3.23946 22.2715 3.08988 22.8857 2.96585 23.4976C2.84106 24.1131 2.73891 24.742 2.66229 25.3668C2.58468 25.9989 2.53118 26.6433 2.50316 27.2822C2.4749 27.9286 2.47192 28.5842 2.49436 29.231C2.51662 29.8715 2.56435 30.5175 2.63632 31.1513C2.70779 31.7807 2.80486 32.4142 2.925 33.0342C3.04327 33.6449 3.18702 34.2586 3.35216 34.8581C3.51568 35.4518 3.70437 36.0466 3.91303 36.6259C4.11988 37.2003 4.35166 37.7743 4.60196 38.332C4.85048 38.8855 5.12341 39.4369 5.41327 39.9706C5.70288 40.5039 6.01654 41.0329 6.34539 41.5425C6.67157 42.0481 7.02131 42.5482 7.38487 43.0288C7.74719 43.5077 8.13232 43.9792 8.52954 44.4301C8.92627 44.8805 9.34481 45.3214 9.77353 45.7405C10.2026 46.1601 10.6527 46.5685 11.1112 46.9544C11.5724 47.3427 12.0541 47.718 12.5427 48.0702C13.0311 48.4221 13.5383 48.7594 14.0503 49.0727C14.5651 49.3877 15.0979 49.6866 15.6339 49.961C16.1736 50.2373 16.73 50.4958 17.2877 50.7294C17.8505 50.9651 18.4286 51.1814 19.0062 51.3722C19.5915 51.5658 20.1922 51.7385 20.7916 51.8856C21.3942 52.0336 22.0103 52.1594 22.6228 52.2595C23.2427 52.3608 23.875 52.4385 24.5023 52.4906C25.1374 52.5432 25.7843 52.5709 26.4248 52.5728C27.0662 52.5741 27.7145 52.551 28.3504 52.5023C28.9816 52.4538 29.6178 52.3794 30.2414 52.2813C30.855 52.1846 31.4724 52.0623 32.0764 51.9177C32.6738 51.7746 33.2734 51.606 33.8582 51.4165C34.4378 51.2288 35.0176 51.0159 35.5815 50.7837C36.1413 50.5531 36.6995 50.2977 37.2405 50.0247C37.7782 49.7534 38.3128 49.4577 38.8297 49.1455C39.346 48.8337 39.8574 48.4977 40.3498 48.1471C40.8386 47.7988 41.3203 47.4277 41.7816 47.0439C42.2424 46.6606 42.6948 46.2548 43.1262 45.8378C43.5576 45.4208 43.9787 44.9824 44.3776 44.5347C44.7771 44.0864 45.1649 43.6172 45.5302 43.1401C45.8963 42.6619 46.2489 42.164 46.578 41.6603C46.9099 41.1523 47.2264 40.6254 47.5189 40.0942C47.8117 39.5627 48.0877 39.0132 48.3394 38.461C48.5928 37.9053 48.8278 37.3329 49.038 36.76C49.25 36.1822 49.4421 35.589 49.6089 34.9968C49.7774 34.3996 49.9247 33.7874 50.0467 33.1769C50.1704 32.5579 50.2713 31.9258 50.3464 31.298C50.4221 30.6653 50.4737 30.0203 50.4998 29.3808C50.5261 28.7343 50.5271 28.0786 50.5028 27.4319C50.4785 26.7913 50.4288 26.1458 50.355 25.5134C50.282 24.8869 50.1835 24.2568 50.0624 23.6402C49.9419 23.027 49.796 22.4114 49.6284 21.8104C49.4633 21.2177 49.2728 20.6237 49.0625 20.0449C48.8539 19.4711 48.6206 18.898 48.3687 18.3414C48.1186 17.7883 47.844 17.2379 47.5529 16.7055C47.2631 16.1757 46.9495 15.65 46.6204 15.1429C46.2916 14.636 45.9391 14.1349 45.5726 13.6534C45.2091 13.1758 44.8228 12.7055 44.424 12.2555C44.0263 11.8066 43.6066 11.3669 43.1763 10.9486C42.7462 10.5304 42.295 10.1234 41.8352 9.73871C41.3747 9.35332 40.894 8.9808 40.4066 8.63145C39.9155 8.27948 39.4052 7.94212 38.8897 7.62875C38.3742 7.31537 37.8405 7.01799 37.3033 6.74491C36.763 6.47033 36.2057 6.21336 35.6468 5.98125C35.0838 5.74739 34.5048 5.53283 33.9259 5.34339C33.3417 5.15225 32.743 4.98192 32.1462 4.83707C31.5409 4.69016 30.9215 4.56561 30.3052 4.4668C29.6848 4.36729 29.0518 4.29147 28.424 4.24137C27.7882 4.19065 27.1409 4.16492 26.4999 4.16492ZM26.4986 55.0714C26.4715 55.0714 26.4444 55.0713 26.4173 55.0713C25.7117 55.0691 24.9991 55.0386 24.2991 54.9806C23.6071 54.9232 22.9096 54.8375 22.2258 54.7257C21.5498 54.6152 20.8697 54.4764 20.2045 54.313C19.5428 54.1506 18.8796 53.9598 18.2333 53.7461C17.5958 53.5354 16.9574 53.2967 16.3363 53.0366C15.7205 52.7787 15.1063 52.4934 14.5106 52.1884C13.9192 51.8856 13.3313 51.5558 12.7633 51.2082C12.1985 50.8626 11.639 50.4905 11.1004 50.1024C10.5615 49.714 10.0304 49.3001 9.52157 48.8718C9.01612 48.4464 8.51991 47.9961 8.04681 47.5335C7.57415 47.0714 7.11265 46.5852 6.67519 46.0886C6.23725 45.5915 5.81263 45.0716 5.41299 44.5434C5.01199 44.0134 4.6263 43.4619 4.26658 42.9043C3.90382 42.342 3.55774 41.7585 3.23813 41.17C2.91827 40.581 2.61701 39.9725 2.34277 39.3615C2.06643 38.7459 1.8106 38.1121 1.58224 37.4781C1.35189 36.8385 1.14354 36.1818 0.962973 35.5263C0.780665 34.8644 0.622037 34.187 0.491428 33.5128C0.358897 32.8285 0.251719 32.1296 0.17287 31.4353C0.0935246 30.7363 0.0408966 30.0241 0.0164112 29.3182C-0.00832214 28.606 -0.00509874 27.8839 0.0260814 27.172C0.0569515 26.4677 0.115964 25.7572 0.201508 25.0602C0.28606 24.3708 0.398817 23.6767 0.536493 22.9975C0.673425 22.3219 0.838562 21.6438 1.02732 20.9819C1.21359 20.3288 1.42751 19.6747 1.66325 19.0378C1.89714 18.4059 2.15835 17.7751 2.43972 17.1628C2.71916 16.5545 3.02557 15.9491 3.35033 15.3634C3.67329 14.7809 4.02259 14.2031 4.38857 13.6461C4.75325 13.0911 5.14346 12.543 5.54825 12.0171C5.9521 11.4925 6.38094 10.9762 6.82291 10.4829C7.26619 9.988 7.73377 9.50374 8.2125 9.04358C8.68957 8.58517 9.18969 8.13913 9.69892 7.71801C10.2091 7.29608 10.7416 6.88827 11.2815 6.50594C11.8234 6.12229 12.3862 5.75489 12.9542 5.41391C13.5252 5.07106 14.1161 4.74613 14.7106 4.44813C15.3111 4.14706 15.9308 3.86567 16.5524 3.61182C17.1756 3.35729 17.8166 3.12412 18.4576 2.91856C19.1038 2.71143 19.7664 2.52723 20.4272 2.37108C21.0944 2.21342 21.7765 2.08038 22.4548 1.97569C23.1401 1.86988 23.8394 1.79018 24.5333 1.73884C25.1837 1.69074 25.8453 1.66638 26.4999 1.66638C27.206 1.66638 27.9191 1.69474 28.6197 1.75064C29.3121 1.80586 30.0104 1.88956 30.6949 1.9993C31.3751 2.10836 32.0587 2.24584 32.7269 2.40806C33.3857 2.5679 34.0468 2.75597 34.6917 2.96703C35.3309 3.17615 35.9701 3.41307 36.5917 3.67122C37.2086 3.92744 37.8238 4.21102 38.4201 4.51415C39.0129 4.81553 39.6018 5.14358 40.1706 5.48943C40.7393 5.83509 41.3022 6.20718 41.8438 6.59544C42.3814 6.98071 42.9114 7.39152 43.4193 7.81645C43.9262 8.24057 44.4237 8.68948 44.898 9.15058C45.3723 9.6118 45.8352 10.0966 46.2737 10.5915C46.7133 11.0877 47.1394 11.6063 47.5402 12.1329C47.9443 12.6639 48.3333 13.2167 48.6959 13.7758C49.0588 14.335 49.4049 14.915 49.7245 15.4996C50.0459 16.0872 50.3488 16.6947 50.625 17.3051C50.9029 17.9194 51.1606 18.5522 51.3908 19.1857C51.6231 19.8247 51.8334 20.4806 52.0157 21.135C52.2006 21.7983 52.3618 22.478 52.4948 23.1549C52.6285 23.8353 52.7371 24.5307 52.8177 25.2217C52.899 25.9191 52.9538 26.6307 52.9805 27.3369C53.0074 28.0491 53.0063 28.7713 52.9773 29.4833C52.9485 30.1883 52.8916 30.8994 52.8081 31.5969C52.7253 32.2896 52.614 32.9872 52.4774 33.6703C52.3427 34.3443 52.18 35.0203 51.9941 35.6795C51.8099 36.3332 51.5978 36.9881 51.3638 37.6261C51.1318 38.2587 50.8723 38.8905 50.5926 39.5039C50.3148 40.1133 50.0102 40.7197 49.6871 41.3064C49.3644 41.8924 49.0151 42.4737 48.649 43.0341C48.286 43.5897 47.8972 44.1388 47.4934 44.6662C47.0906 45.1923 46.663 45.7096 46.2225 46.2039C45.7826 46.6975 45.3184 47.181 44.8428 47.6407C44.3671 48.1004 43.8684 48.548 43.3602 48.9706C42.8514 49.3938 42.3202 49.8031 41.7812 50.1872C41.2381 50.574 40.674 50.9445 40.1046 51.2884C39.5341 51.6329 38.9441 51.9594 38.3508 52.2587C37.7538 52.56 37.1376 52.8418 36.5196 53.0963C35.897 53.3527 35.257 53.5878 34.617 53.7951C33.9712 54.0042 33.3094 54.1904 32.6498 54.3484C31.983 54.508 31.3016 54.6431 30.6243 54.7497C29.9365 54.8581 29.2348 54.94 28.5387 54.9935C27.8649 55.0452 27.1789 55.0714 26.4986 55.0714Z" fill="white"/>
<mask id="mask1" mask-type="alpha" maskUnits="userSpaceOnUse" x="16" y="15" width="25" height="39">
<path fill-rule="evenodd" clip-rule="evenodd" d="M40.9407 49.0134C40.9082 49.0366 40.8756 49.0597 40.8429 49.0828C40.3702 49.4164 39.8849 49.7323 39.3885 50.0296C38.888 50.3296 38.3759 50.6104 37.8539 50.8714C37.3317 51.1326 36.7996 51.3739 36.2591 51.5945C35.7149 51.8168 35.1621 52.018 34.6024 52.1977C34.0352 52.3799 33.4608 52.5399 32.8811 52.6775C32.2979 52.8158 31.7092 52.9313 31.1171 53.0237C30.5142 53.1178 29.9075 53.1879 29.299 53.2342C28.6839 53.2809 28.0668 53.3033 27.4498 53.3013C26.8336 53.2995 26.2175 53.2735 25.6034 53.2231C24.9959 53.1733 24.3904 53.0996 23.7887 53.0019C23.1975 52.9061 22.6102 52.7872 22.0284 52.6455C21.4526 52.5053 20.8823 52.3429 20.3192 52.1585C19.7581 51.9749 19.2042 51.7697 18.659 51.5434C18.12 51.3196 17.5895 51.0753 17.0692 50.8113C16.7251 50.6368 16.3855 50.4536 16.0508 50.2621L16.0508 15.9816H40.9407V49.0134Z" fill="white"/>
</mask>
<g mask="url(#mask1)">
<path fill-rule="evenodd" clip-rule="evenodd" d="M25.9735 58.093C25.4027 58.093 24.8852 57.7039 24.7466 57.1252C24.5842 56.448 25.0025 55.7677 25.6806 55.6056C25.7498 55.5891 25.8243 55.569 25.8944 55.5498C26.0989 55.4938 26.3111 55.4307 26.5435 55.3567C26.8702 55.2527 27.2068 55.1363 27.5443 55.0106C27.9687 54.8526 28.3944 54.6798 28.8099 54.4972C29.3012 54.2813 29.7869 54.0478 30.2537 53.8031C30.7842 53.5249 31.3007 53.2265 31.7886 52.9162C32.3306 52.5716 32.8489 52.205 33.3288 51.8267C33.8551 51.4118 34.3484 50.9728 34.7953 50.5215C35.2774 50.0347 35.7178 49.5212 36.1042 48.9954C36.5163 48.4346 36.8781 47.8446 37.1796 47.2417C37.501 46.5995 37.763 45.9244 37.9585 45.2354C38.1668 44.5012 38.3055 43.7297 38.3708 42.9423C38.4406 42.102 38.4286 41.2199 38.3354 40.3204C38.2394 39.3926 38.0726 38.5129 37.8398 37.7055C37.6319 36.9849 37.3648 36.3068 37.0459 35.6902C36.7603 35.1383 36.4193 34.6091 36.0321 34.1174C35.6977 33.6926 35.3046 33.2659 34.8635 32.8492C34.5118 32.5168 34.1053 32.1667 33.5844 31.7472C33.3907 31.5913 33.1955 31.4372 33.0005 31.283C32.7574 31.0911 32.5062 30.8927 32.2584 30.6913C31.8941 30.3952 31.4181 29.9974 30.9671 29.5451C30.5067 29.0835 30.1339 28.6277 29.8279 28.1518C29.4742 27.6017 29.2034 27.0087 29.0232 26.389C28.8303 25.7257 28.7315 25 28.7296 24.2319C28.7277 23.4389 28.8236 22.5991 29.0227 21.6644C29.1797 20.927 29.3964 20.1521 29.6808 19.312C29.4255 19.4395 29.1711 19.5704 28.9203 19.7036C28.424 19.967 27.9329 20.2437 27.4604 20.5259C26.9263 20.845 26.4051 21.1778 25.9114 21.5149C25.3632 21.8893 24.8357 22.278 24.3435 22.6703C23.8076 23.0974 23.3002 23.5395 22.8354 23.9843C22.3374 24.4609 21.8758 24.9523 21.4636 25.4451C21.0253 25.9691 20.6312 26.5083 20.2923 27.0478C19.935 27.6165 19.6294 28.2009 19.384 28.7847C19.1263 29.3978 18.9277 30.0274 18.794 30.6561C18.6532 31.3175 18.58 31.9974 18.5762 32.6771C18.5721 33.3978 18.6461 34.14 18.7961 34.8829C18.9553 35.6716 19.2047 36.484 19.5374 37.2976C19.8893 38.158 20.344 39.0434 20.8889 39.9292C21.4493 40.8403 22.0912 41.7374 22.8511 42.6719C23.2907 43.2125 23.2082 44.0066 22.6669 44.4455C22.1256 44.8846 21.3304 44.8021 20.8908 44.2616C20.0605 43.2406 19.3561 42.2552 18.7372 41.2491C18.1206 40.2468 17.6033 39.2381 17.1996 38.251C16.8069 37.2907 16.5111 36.3252 16.3206 35.3812C16.1367 34.47 16.046 33.5554 16.051 32.6631C16.0556 31.8122 16.1475 30.9606 16.3239 30.1319C16.4905 29.349 16.7366 28.5673 17.0555 27.8086C17.3539 27.099 17.7231 26.392 18.1532 25.7076C18.5526 25.0719 19.0144 24.4397 19.5255 23.8285C19.9973 23.2645 20.5231 22.7043 21.0883 22.1635C21.6079 21.6663 22.173 21.1738 22.7681 20.6995C23.3087 20.2686 23.8866 19.8426 24.4859 19.4334C25.0216 19.0676 25.5862 18.707 26.164 18.3618C26.6728 18.0579 27.2014 17.7601 27.735 17.4769C28.1925 17.2341 28.6608 16.9981 29.1268 16.7755C29.5089 16.5931 29.8926 16.4181 30.2674 16.2554C30.3464 16.2212 30.4255 16.1873 30.5046 16.1537L30.5221 16.146C30.5765 16.122 30.6678 16.0816 30.7839 16.0478C31.4187 15.863 32.1008 16.0724 32.5214 16.5814C32.8787 17.0136 32.9919 17.5908 32.8241 18.1254C32.7742 18.2845 32.7145 18.4222 32.6666 18.5329C32.6501 18.5709 32.6334 18.6088 32.6183 18.6468C32.5091 18.9202 32.4051 19.191 32.3091 19.4518C31.936 20.4661 31.6689 21.3613 31.4927 22.1889C31.3312 22.9471 31.2534 23.6134 31.2549 24.2258C31.2562 24.7579 31.3212 25.249 31.4482 25.6855C31.5606 26.072 31.7304 26.4434 31.9528 26.7892C32.1608 27.1128 32.4237 27.4321 32.7563 27.7656C33.125 28.1353 33.5358 28.4781 33.8524 28.7355C34.0866 28.9258 34.3308 29.1187 34.5669 29.3052C34.7683 29.4642 34.9695 29.6232 35.1693 29.784C35.7435 30.2463 36.1979 30.6383 36.5993 31.0176C37.1298 31.519 37.6068 32.0374 38.0172 32.5588C38.5028 33.1753 38.9308 33.8396 39.2895 34.5329C39.6841 35.2959 40.0128 36.1285 40.2664 37.0076C40.5405 37.958 40.736 38.9853 40.8473 40.0611C40.9565 41.1155 40.97 42.155 40.8874 43.1505C40.8087 44.0996 40.6407 45.0323 40.3882 45.9227C40.1498 46.7629 39.8303 47.5858 39.4387 48.3687C39.0735 49.0988 38.6366 49.8117 38.1401 50.4873C37.6808 51.1123 37.1596 51.7204 36.5909 52.2946C36.0716 52.8191 35.5004 53.3276 34.8934 53.806C34.347 54.2368 33.7586 54.6532 33.1449 55.0434C32.5978 55.3912 32.0201 55.7249 31.4277 56.0357C30.9096 56.3073 30.3711 56.5662 29.827 56.8053C29.3676 57.0072 28.8964 57.1984 28.4269 57.3732C28.0514 57.5132 27.6757 57.643 27.3105 57.7593C27.0451 57.8438 26.8002 57.9166 26.562 57.9818C26.4714 58.0066 26.3729 58.0331 26.2683 58.0581C26.1696 58.0817 26.0707 58.093 25.9735 58.093Z" fill="white"/>
</g>
</svg>
