<svg width="1188" height="517" viewBox="0 0 1188 517" fill="none" xmlns="http://www.w3.org/2000/svg">
<g id="background-decorators">
<g id="whale" opacity="0.0447668">
<path id="Shape" d="M1175.14 475.801C1172.89 472.99 1169.91 471.837 1168.91 470.378C1166.8 467.313 1170.78 464.652 1171.31 459.82C1172.33 450.658 1171.89 446.278 1170.71 444.14C1169.34 441.64 1158.89 446.829 1158.89 446.829C1148.73 449.891 1146.48 461.141 1145.97 465.913C1144.46 465.321 1143.02 464.727 1141.73 464.144C1135.16 461.163 1117.47 458.676 1115.23 456.185C1087.73 425.698 995.882 420.287 984.373 421.664C948.026 426.022 971.802 477.195 971.802 477.195C971.802 477.195 972.281 478.695 979.177 479.302C996.701 486.452 1020.57 486.272 1020.53 486.839C1020.49 487.406 1035.38 506.453 1037.55 506.605C1039.71 506.756 1041.2 497.002 1041.69 495.702C1042.19 494.41 1039.18 491.164 1039.18 491.164C1039.18 491.164 1039.18 491.164 1041.84 491.35C1044.49 491.535 1047.78 492.307 1063.1 494.732C1103.14 501.08 1135.6 492.011 1135.6 492.011C1141.54 490.904 1147.43 488.982 1152.89 486.745C1156.24 491.175 1162.44 497.096 1171.03 495.758C1171.03 495.758 1180.52 494.712 1182.86 493.069C1185.29 491.35 1181.02 483.145 1175.14 475.801Z" fill="white"/>
</g>
<g id="tuna" opacity="0.0731658">
<path id="Shape_2" d="M1.20849 15.1099C11.655 17.675 12.3137 24.7371 13.9242 24.6097C17.6897 24.311 35.0726 16.478 35.6646 16.361C36.2566 16.2439 36.1849 16.0867 35.6135 15.8749C35.0418 15.6604 35.3441 15.4117 35.7293 14.8772C36.1122 14.3455 36.5986 13.1991 37.0678 12.4388C37.537 11.6785 35.5519 8.49391 33.455 7.34436C31.3584 6.1974 32.0198 6.29001 32.0198 6.29001C34.8126 6.16137 42.6835 13.5429 42.6835 13.5429C42.6835 13.5429 42.969 12.8098 43.9251 12.4819C50.0118 10.3944 57.2451 3.71898 57.5856 2.78397L61.1402 11.2227C75.3296 12.2498 85.4047 19.128 85.4047 19.128C85.4047 19.128 85.9498 19.5883 85.6605 20.1363C85.3012 20.8171 85.1015 20.4172 83.9059 21.0917C82.7101 21.7637 82.3764 22.2379 81.1862 22.9641C79.9961 23.6904 81.3785 23.2184 82.3094 23.1755C83.2404 23.1327 84.4416 23.0614 85.4873 23.0613C86.5331 23.0613 86.3865 23.2414 84.5578 24.6908C82.7293 26.1429 75.6032 29.5159 72.9618 30.5592C70.5047 31.531 69.6361 31.766 63.835 32.9216C63.6068 33.1756 63.367 33.4936 63.1353 33.8891C62.2489 35.4043 62.2991 36.9309 61.7641 37.5909C61.2289 38.2484 60.5065 39.7489 60.1153 40.2266C59.7267 40.7039 57.5347 37.6509 57.3788 35.6439C57.3136 34.7986 57.3969 34.267 57.5845 33.9023C52.8546 34.3494 49.3336 34.0003 48.6061 33.8284C47.9512 33.6724 44.1814 33.1063 40.9269 32.4417C40.3243 34.0578 39.0793 34.9362 38.4856 35.3122C37.5569 35.9012 32.5179 38.3074 31.9176 38.3705C31.3199 38.4332 36.602 34.9663 36.404 34.1088C36.2061 33.2513 35.0356 31.4162 35.2892 31.0289C31.1539 30.1849 25.313 28.8639 20.9607 28.38C16.0369 27.8332 13.5344 27.8242 13.5344 27.8242C11.3953 35.2167 4.04718 39.6012 4.04718 39.6012C6.63647 37.4131 7.97384 31.966 8.57076 26.649C9.17835 21.3335 1.20849 15.1099 1.20849 15.1099Z" fill="white"/>
</g>
<g id="bubbles">
<g id="bubble">
<path id="Oval 6" opacity="0.104167" fill-rule="evenodd" clip-rule="evenodd" d="M1126.5 87C1150.52 87 1170 67.5244 1170 43.5C1170 19.4756 1150.52 0 1126.5 0C1102.48 0 1083 19.4756 1083 43.5C1083 67.5244 1102.48 87 1126.5 87Z" fill="white"/>
<path id="Line 2" opacity="0.0494226" d="M1101.2 44.7652C1101.29 47.1534 1099.44 49.1688 1097.05 49.2667C1094.66 49.3646 1092.64 47.508 1092.55 45.1199C1092.14 35.1819 1095.23 26.5891 1101.76 19.6049C1108.41 12.5004 1117.22 9.27892 1127.8 9.97644C1130.19 10.1336 1131.99 12.1944 1131.84 14.5794C1131.68 16.9644 1129.62 18.7704 1127.23 18.6133C1119.16 18.0813 1112.9 20.3709 1108.09 25.5179C1103.16 30.7853 1100.88 37.1132 1101.2 44.7652Z" fill="white"/>
</g>
<g id="bubble_2">
<path id="Oval 6_2" opacity="0.104167" fill-rule="evenodd" clip-rule="evenodd" d="M141.5 395C156.136 395 168 383.807 168 370C168 356.193 156.136 345 141.5 345C126.864 345 115 356.193 115 370C115 383.807 126.864 395 141.5 395Z" fill="white"/>
<path id="Line 2_2" opacity="0.0494226" d="M126.085 370.727C126.144 372.1 125.013 373.258 123.558 373.314C122.104 373.371 120.876 372.304 120.816 370.931C120.568 365.22 122.452 360.281 126.432 356.267C130.48 352.184 135.844 350.333 142.294 350.734C143.747 350.824 144.847 352.008 144.752 353.379C144.656 354.75 143.4 355.788 141.947 355.697C137.028 355.392 133.216 356.708 130.282 359.666C127.281 362.693 125.893 366.33 126.085 370.727Z" fill="white"/>
</g>
<g id="bubble_3">
<path id="Oval 6_3" opacity="0.104167" fill-rule="evenodd" clip-rule="evenodd" d="M1092.57 284.593C1105.29 279.966 1111.93 266.117 1107.39 253.661C1102.86 241.206 1088.86 234.86 1076.14 239.488C1063.42 244.116 1056.78 257.965 1061.32 270.42C1065.85 282.876 1079.85 289.221 1092.57 284.593Z" fill="white"/>
<path id="Line 2_3" opacity="0.0494226" d="M1071.19 267.571C1071.7 268.791 1071.09 270.193 1069.85 270.704C1068.6 271.215 1067.18 270.641 1066.68 269.421C1064.59 264.347 1064.6 259.297 1066.74 254.417C1068.92 249.454 1072.98 246.088 1078.72 244.41C1080.01 244.032 1081.35 244.752 1081.72 246.019C1082.09 247.286 1081.34 248.619 1080.04 248.997C1075.67 250.277 1072.79 252.669 1071.21 256.265C1069.59 259.945 1069.58 263.665 1071.19 267.571Z" fill="white"/>
</g>
<g id="bubble_4">
<path id="Oval 6_4" opacity="0.104167" fill-rule="evenodd" clip-rule="evenodd" d="M173.526 457.106C181.316 454.273 185.256 445.455 182.326 437.411C179.396 429.366 170.706 425.142 162.916 427.976C155.126 430.809 151.186 439.627 154.116 447.671C157.045 455.715 165.736 459.94 173.526 457.106Z" fill="white"/>
<path id="Line 2_4" opacity="0.0494226" d="M160.17 445.949C160.493 446.737 160.137 447.631 159.374 447.945C158.612 448.26 157.732 447.876 157.409 447.088C156.065 443.808 156.02 440.566 157.286 437.457C158.575 434.295 161.037 432.178 164.555 431.162C165.348 430.934 166.185 431.411 166.424 432.228C166.664 433.045 166.216 433.893 165.424 434.121C162.74 434.896 160.99 436.4 160.057 438.692C159.102 441.036 159.135 443.424 160.17 445.949Z" fill="white"/>
</g>
</g>
</g>
</svg>
